<svg width="16" height="16" viewBox="0 0 16 16" fill="none" xmlns="http://www.w3.org/2000/svg">
<g clip-path="url(#clip0_294_227)">
<g clip-path="url(#clip1_294_227)">
<path d="M8.66683 4.66671H7.3335V7.33337H4.66683V8.66671H7.3335V11.3334H8.66683V8.66671H11.3335V7.33337H8.66683V4.66671ZM8.00016 1.33337C4.32016 1.33337 1.3335 4.32004 1.3335 8.00004C1.3335 11.68 4.32016 14.6667 8.00016 14.6667C11.6802 14.6667 14.6668 11.68 14.6668 8.00004C14.6668 4.32004 11.6802 1.33337 8.00016 1.33337ZM8.00016 13.3334C5.06016 13.3334 2.66683 10.94 2.66683 8.00004C2.66683 5.06004 5.06016 2.66671 8.00016 2.66671C10.9402 2.66671 13.3335 5.06004 13.3335 8.00004C13.3335 10.94 10.9402 13.3334 8.00016 13.3334Z" fill="white"/>
</g>
</g>
<defs>
<clipPath id="clip0_294_227">
<rect width="16" height="16" fill="white"/>
</clipPath>
<clipPath id="clip1_294_227">
<rect width="16" height="16" fill="white"/>
</clipPath>
</defs>
</svg>
