<svg width="60" height="60" viewBox="0 0 60 60" fill="none" xmlns="http://www.w3.org/2000/svg">
<path d="M48.75 13.125H42.2531L39.6094 9.16875C39.2675 8.65637 38.8047 8.23608 38.2619 7.94504C37.719 7.65399 37.1128 7.50114 36.4969 7.5H23.5031C22.8872 7.50114 22.281 7.65399 21.7381 7.94504C21.1953 8.23608 20.7325 8.65637 20.3906 9.16875L17.7469 13.125H11.25C9.75816 13.125 8.32742 13.7176 7.27252 14.7725C6.21763 15.8274 5.625 17.2582 5.625 18.75V45C5.625 46.4918 6.21763 47.9226 7.27252 48.9775C8.32742 50.0324 9.75816 50.625 11.25 50.625H48.75C50.2418 50.625 51.6726 50.0324 52.7275 48.9775C53.7824 47.9226 54.375 46.4918 54.375 45V18.75C54.375 17.2582 53.7824 15.8274 52.7275 14.7725C51.6726 13.7176 50.2418 13.125 48.75 13.125ZM37.5 33.75H31.875V39.375C31.875 39.8723 31.6775 40.3492 31.3258 40.7008C30.9742 41.0525 30.4973 41.25 30 41.25C29.5027 41.25 29.0258 41.0525 28.6742 40.7008C28.3225 40.3492 28.125 39.8723 28.125 39.375V33.75H22.5C22.0027 33.75 21.5258 33.5525 21.1742 33.2008C20.8225 32.8492 20.625 32.3723 20.625 31.875C20.625 31.3777 20.8225 30.9008 21.1742 30.5492C21.5258 30.1975 22.0027 30 22.5 30H28.125V24.375C28.125 23.8777 28.3225 23.4008 28.6742 23.0492C29.0258 22.6975 29.5027 22.5 30 22.5C30.4973 22.5 30.9742 22.6975 31.3258 23.0492C31.6775 23.4008 31.875 23.8777 31.875 24.375V30H37.5C37.9973 30 38.4742 30.1975 38.8258 30.5492C39.1775 30.9008 39.375 31.3777 39.375 31.875C39.375 32.3723 39.1775 32.8492 38.8258 33.2008C38.4742 33.5525 37.9973 33.75 37.5 33.75Z" fill="white"/>
</svg>
