<svg width="25" height="25" viewBox="0 0 25 25" fill="none" xmlns="http://www.w3.org/2000/svg">
<path d="M18.3489 7.68933V21.1893C18.3489 21.3882 18.2699 21.579 18.1292 21.7197C17.9886 21.8603 17.7978 21.9393 17.5989 21.9393H4.09888C3.89996 21.9393 3.7092 21.8603 3.56855 21.7197C3.42789 21.579 3.34888 21.3882 3.34888 21.1893V7.68933C3.34888 7.49042 3.42789 7.29965 3.56855 7.159C3.7092 7.01835 3.89996 6.93933 4.09888 6.93933H17.5989C17.7978 6.93933 17.9886 7.01835 18.1292 7.159C18.2699 7.29965 18.3489 7.49042 18.3489 7.68933ZM20.5989 3.93933H7.09888C6.89996 3.93933 6.7092 4.01835 6.56855 4.159C6.42789 4.29965 6.34888 4.49042 6.34888 4.68933C6.34888 4.88824 6.42789 5.07901 6.56855 5.21966C6.7092 5.36031 6.89996 5.43933 7.09888 5.43933H19.8489V18.1893C19.8489 18.3882 19.9279 18.579 20.0685 18.7197C20.2092 18.8603 20.4 18.9393 20.5989 18.9393C20.7978 18.9393 20.9886 18.8603 21.1292 18.7197C21.2699 18.579 21.3489 18.3882 21.3489 18.1893V4.68933C21.3489 4.49042 21.2699 4.29965 21.1292 4.159C20.9886 4.01835 20.7978 3.93933 20.5989 3.93933Z" fill="#87A706"/>
</svg>
