<svg width="32" height="33" viewBox="0 0 32 33" fill="none" xmlns="http://www.w3.org/2000/svg">
<g id="icPass" clip-path="url(#clip0_54_291)">
<g id="Group">
<g id="Group_2">
<path id="Vector" d="M2.66659 23.1667H29.3333V25.8333H2.66659V23.1667ZM4.19992 17.7667L5.33325 15.7933L6.46659 17.7667L8.19992 16.7667L7.06659 14.7933H9.33325V12.7933H7.06659L8.19992 10.8333L6.46659 9.83333L5.33325 11.7933L4.19992 9.83333L2.46659 10.8333L3.59992 12.7933H1.33325V14.7933H3.59992L2.46659 16.7667L4.19992 17.7667ZM13.1333 16.7667L14.8666 17.7667L15.9999 15.7933L17.1333 17.7667L18.8666 16.7667L17.7333 14.7933H19.9999V12.7933H17.7333L18.8666 10.8333L17.1333 9.83333L15.9999 11.7933L14.8666 9.83333L13.1333 10.8333L14.2666 12.7933H11.9999V14.7933H14.2666L13.1333 16.7667ZM30.6666 12.7933H28.3999L29.5333 10.8333L27.7999 9.83333L26.6666 11.7933L25.5333 9.83333L23.7999 10.8333L24.9333 12.7933H22.6666V14.7933H24.9333L23.7999 16.7667L25.5333 17.7667L26.6666 15.7933L27.7999 17.7667L29.5333 16.7667L28.3999 14.7933H30.6666V12.7933Z" fill="#87A706"/>
</g>
</g>
</g>
<defs>
<clipPath id="clip0_54_291">
<rect width="32" height="32" fill="white" transform="translate(0 0.5)"/>
</clipPath>
</defs>
</svg>
