<svg width="25" height="24" viewBox="0 0 25 24" fill="none" xmlns="http://www.w3.org/2000/svg">
<g id="Access time filled" clip-path="url(#clip0_368_363)">
<g id="Group">
<path id="Vector" d="M12.49 2C6.97 2 2.5 6.48 2.5 12C2.5 17.52 6.97 22 12.49 22C18.02 22 22.5 17.52 22.5 12C22.5 6.48 18.02 2 12.49 2ZM16.5 16C16.11 16.39 15.48 16.39 15.09 16L11.8 12.71C11.61 12.52 11.5 12.27 11.5 12V8C11.5 7.45 11.95 7 12.5 7C13.05 7 13.5 7.45 13.5 8V11.59L16.5 14.59C16.89 14.98 16.89 15.61 16.5 16Z" fill="#87A706"/>
</g>
</g>
<defs>
<clipPath id="clip0_368_363">
<rect width="24" height="24" fill="white" transform="translate(0.5)"/>
</clipPath>
</defs>
</svg>
