<svg width="80" height="80" viewBox="0 0 80 80" fill="none" xmlns="http://www.w3.org/2000/svg">
<g clip-path="url(#clip0_204_1667)">
<path d="M40.0002 53.3333C39.0557 53.3333 38.2646 53.0133 37.6268 52.3733C36.9868 51.7356 36.6668 50.9444 36.6668 50V26.1667L30.4168 32.4167C29.7502 33.0833 28.9724 33.4167 28.0835 33.4167C27.1946 33.4167 26.3891 33.0556 25.6668 32.3333C25.0002 31.6667 24.6813 30.8744 24.7102 29.9567C24.7368 29.0411 25.0557 28.2778 25.6668 27.6667L37.6668 15.6667C38.0002 15.3333 38.3613 15.0967 38.7502 14.9567C39.1391 14.8189 39.5557 14.75 40.0002 14.75C40.4446 14.75 40.8613 14.8189 41.2502 14.9567C41.6391 15.0967 42.0002 15.3333 42.3335 15.6667L54.3335 27.6667C55.0002 28.3333 55.319 29.1244 55.2902 30.04C55.2635 30.9578 54.9446 31.7222 54.3335 32.3333C53.6668 33 52.8757 33.3467 51.9602 33.3733C51.0424 33.4022 50.2502 33.0833 49.5835 32.4167L43.3335 26.1667V50C43.3335 50.9444 43.0146 51.7356 42.3768 52.3733C41.7368 53.0133 40.9446 53.3333 40.0002 53.3333ZM20.0002 66.6667C18.1668 66.6667 16.5979 66.0145 15.2935 64.71C13.9868 63.4033 13.3335 61.8333 13.3335 60V53.3333C13.3335 52.3889 13.6524 51.5967 14.2902 50.9567C14.9302 50.3189 15.7224 50 16.6668 50C17.6113 50 18.4035 50.3189 19.0435 50.9567C19.6813 51.5967 20.0002 52.3889 20.0002 53.3333V60H60.0002V53.3333C60.0002 52.3889 60.3202 51.5967 60.9602 50.9567C61.5979 50.3189 62.389 50 63.3335 50C64.2779 50 65.069 50.3189 65.7068 50.9567C66.3468 51.5967 66.6668 52.3889 66.6668 53.3333V60C66.6668 61.8333 66.0146 63.4033 64.7102 64.71C63.4035 66.0145 61.8335 66.6667 60.0002 66.6667H20.0002Z" fill="#87A706"/>
</g>
<defs>
<clipPath id="clip0_204_1667">
<rect width="80" height="80" fill="white"/>
</clipPath>
</defs>
</svg>
